# xmcd
#
# Track frame offsets: 
#        150
#        19640
#        35721
#        54374
#        72009
#        83449
#        97147
#        112571
#        133291
#        152992
#        163705
#
# Disc length: 2406 seconds
#
# Revision: 1
# Processed by: cddbd v1.5.2PL0 Copyright (c) Steve Scherf et al.
# Submitted via: ExactAudioCopyFreeDBPlugin 1.0
#
DISCID=8509640b
DTITLE=Ray Bonneville - Bad Man's Blood
DYEAR=2011
DGENRE=Blues
TTITLE0=Bad Man's Blood
TTITLE1=Sugar and Riley
TTITLE2=River John
TTITLE3=Good Times
TTITLE4=Mississippi
TTITLE5=Night Walker
TTITLE6=Darlin' (Put Your Suitcase Down)
TTITLE7=Blonde of Mine
TTITLE8=Cross and Flowers
TTITLE9=Ray's Jump
TTITLE10=Funny 'bout Love
EXTD=
EXTT0=
EXTT1=
EXTT2=
EXTT3=
EXTT4=
EXTT5=
EXTT6=
EXTT7=
EXTT8=
EXTT9=
EXTT10=
PLAYORDER=
